<svg width="176" height="52" fill="none" xmlns="http://www.w3.org/2000/svg"><path d="m7.8 23.4 2.6-1.3 4.2-6.3 1.3-.5 1.3 6.3-1.8.3-1.3-2.6-1 4h4.5l4.7 1.3 1.8-1.2 3.2 3.3 1.4-6.1 2.2 2.3 1.4-2 2.2-.6 3.2-3 .5-1.5 2.7.4 1 1.5L40 22l4.9-2.5V18l1.9-.4 2 2.1 2-2.5v-1.8l3.4-2.3 1.4-2h2l3.8-7.8L64.7 0l1.2 2L64 4.3l.7 1.5 1.8.4 1.4 6.4v5.4l2.6 3.6 1.3 5-4.5-2.9-2-8.3-1.1.3-.2 5.6-3.2 5.3-1 8.1 2.2.5 1-1.1 2.1 2.4 1.6 7.4-.1 4.7h-2l-.9-6.6-1.4 2-3.2-.7-2.5-2.2-3 1 .2 4.7-2.3.7-3.4 2.6-4-.6-1.7-1-2.5.5.8 1-2 1.3-1.7-.8-3 1.4-4.7-2.4-1.8-4.1-1.6.1-1.8-1.5v-1l-5.8-.7-.9 3.1-3.6-1.6-1.8-3H8.2l-.4 4.8-2.3.7-1 4.5-1-.8L0 40.7l4.3-2-.7-4.1-.7-4.2 1.9-2.7-.6-1.7 2.5-2.8 1 .2Zm56.7 10.3 4 6 1.2-.6-1.6-2.5-3.6-3.8v.9Zm-40-12v-1.8l2.9-2.2 2.6-1.3h-3L24.3 18l-1.6 1.5v2.1h1.7ZM89.8 41h4.8v-5.2h2.6c4 0 6.6-2.3 6.6-6 0-3.8-2.6-6.3-6.5-6.3h-7.5V41Zm4.8-8.9v-4.8h1.6c1.7 0 2.7 1 2.7 2.4 0 1.5-1 2.4-2.7 2.4h-1.6ZM111.6 41.2c4.3 0 6.8-2.7 6.8-6.7s-2.5-6.8-6.8-6.8c-4.2 0-6.8 2.8-6.8 6.8s2.6 6.7 6.8 6.7Zm0-3.4c-1.2 0-2-1.3-2-3.3 0-2.1.8-3.4 2-3.4s2 1.3 2 3.4c0 2-.8 3.3-2 3.3ZM126.6 41.2c3.8 0 6.2-2.2 6.2-5.7h-4.3c-.1 1.4-.8 2.2-1.9 2.2-1.2 0-2-1.1-2-3.2 0-2.2.8-3.2 2-3.2 1 0 1.8.7 1.9 2h4.3c0-3.3-2.4-5.6-6.2-5.6-4.3 0-6.8 2.8-6.8 6.8s2.5 6.7 6.8 6.7ZM141 41.2c4 0 6.3-2.2 6.3-5.7H143c-.1 1.4-.8 2.2-1.9 2.2-1.2 0-2-1.1-2-3.2 0-2.2.8-3.2 2-3.2 1 0 1.8.7 1.9 2h4.3c0-3.3-2.4-5.6-6.2-5.6-4.3 0-6.8 2.8-6.8 6.8s2.5 6.7 6.8 6.7ZM153.7 35v-7h-4.4v13h4.4l3.6-7.1V41h4.5V28h-4.5l-3.6 7ZM171.7 41h4.3V28h-6.1c-3.8 0-6.2 1.8-6.1 4.5 0 1.5.8 2.7 2.4 3.4l-2.6 5.1h4.3l2.2-4.3h1.6V41Zm0-7.2H170c-1.3 0-1.8-.6-1.8-1.2 0-.5.5-1.2 1.7-1.2h1.8v2.4Z" fill="#fff"/></svg>